<?xml version="1.0" standalone="no"?>
<!DOCTYPE svg PUBLIC "-//W3C//DTD SVG 20010904//EN"
 "http://www.w3.org/TR/2001/REC-SVG-20010904/DTD/svg10.dtd">
<svg version="1.0" xmlns="http://www.w3.org/2000/svg"
 width="212.000000pt" height="299.000000pt" viewBox="0 0 212.000000 299.000000"
 preserveAspectRatio="xMidYMid meet">
<metadata>
Created by potrace 1.10, written by Peter Selinger 2001-2011
</metadata>
<g transform="translate(0.000000,299.000000) scale(0.100000,-0.100000)"
fill="#000000" stroke="none">
<path d="M940 2943 c22 -27 46 -57 53 -69 34 -59 80 -124 84 -121 2 3 -13 40
-35 83 -44 91 -45 119 -1 110 33 -6 296 -135 340 -166 16 -12 40 -20 55 -18
24 3 24 4 -13 23 -21 11 -40 23 -43 27 -11 14 -227 116 -282 133 -34 10 -70
15 -89 11 -33 -6 -73 9 -64 25 4 5 -6 9 -20 9 -26 0 -26 0 15 -47z"/>
<path d="M1256 2981 c41 -5 60 -15 99 -49 27 -24 63 -64 81 -90 50 -74 67 -85
137 -90 34 -2 66 -8 71 -12 5 -5 8 -45 8 -90 -1 -82 -1 -82 36 -116 20 -19 43
-34 49 -34 7 0 22 -20 34 -45 14 -29 28 -45 39 -45 10 0 21 -9 25 -20 3 -11
24 -35 46 -53 21 -19 39 -41 39 -50 0 -9 9 -19 20 -22 11 -3 20 -14 20 -24 0
-9 14 -27 31 -40 16 -12 34 -33 39 -47 5 -13 14 -24 20 -24 5 0 22 -19 37 -42
27 -42 28 -42 31 -16 2 16 -4 35 -15 46 -87 93 -114 124 -148 167 -22 28 -63
75 -93 106 -29 31 -63 70 -75 86 -12 16 -34 41 -48 54 -40 37 -50 63 -52 138
-3 88 -18 107 -96 117 -67 8 -106 26 -122 57 -7 12 -39 50 -72 85 l-60 62 -66
-1 -66 -2 51 -6z"/>
<path d="M1090 2886 c0 -13 23 -28 45 -30 5 -1 16 -14 25 -31 8 -16 16 -32 18
-34 1 -2 5 -1 8 2 4 4 1 13 -6 22 -24 29 15 17 45 -15 16 -16 36 -30 45 -30
21 0 92 -39 106 -58 10 -14 12 -13 22 4 9 16 6 21 -21 35 -18 9 -89 46 -159
82 -83 44 -128 62 -128 53z"/>
<path d="M1097 2774 c-6 -10 21 -80 28 -73 2 3 -2 22 -9 43 -7 21 -16 35 -19
30z"/>
<path d="M1200 2775 c0 -3 13 -30 29 -60 24 -44 44 -65 104 -105 40 -27 94
-71 118 -97 42 -46 128 -102 158 -103 11 0 11 3 1 15 -19 23 -80 127 -80 136
0 5 -5 9 -11 9 -6 0 -2 -15 10 -33 11 -18 24 -45 30 -60 l11 -27 -29 14 c-15
8 -50 40 -77 70 -27 31 -52 56 -57 56 -4 0 -18 9 -30 21 -12 11 -35 28 -52 36
-33 17 -74 61 -75 81 0 6 -6 12 -12 12 -10 0 -9 3 1 9 11 7 10 11 -7 20 -23
12 -32 14 -32 6z"/>
<path d="M1295 2715 c54 -46 95 -61 157 -58 54 3 57 1 66 -25 l10 -27 1 32 c1
38 -15 46 -89 39 -42 -4 -59 -1 -89 18 -20 13 -47 28 -61 35 -22 11 -22 9 5
-14z"/>
<path d="M1566 2698 c-15 -17 -16 -24 -6 -44 11 -19 10 -27 -3 -47 -17 -26
-14 -39 8 -31 8 3 19 -4 25 -16 22 -41 47 -130 43 -152 -3 -16 3 -27 17 -36
12 -7 24 -12 26 -9 7 6 -25 104 -56 170 -25 54 -28 70 -23 125 6 65 0 73 -31
40z"/>
<path d="M985 2680 l-50 -6 55 -8 c30 -4 71 -6 90 -4 30 3 35 0 38 -19 2 -12
-4 -34 -14 -48 -19 -29 -57 -133 -67 -184 -6 -31 -5 -33 16 -27 12 3 33 6 46
6 13 0 22 3 18 6 -7 8 18 35 36 38 6 2 19 6 27 9 8 3 59 8 112 11 94 6 97 6
104 -16 7 -22 7 -22 15 -3 13 33 10 43 -13 48 -13 2 -8 4 9 3 21 -1 29 2 24 7
-6 6 -36 6 -80 1 -38 -6 -95 -10 -128 -9 -52 0 -62 -3 -95 -34 -21 -19 -47
-41 -59 -49 -21 -15 -22 -15 -15 24 4 21 25 77 47 123 35 72 39 87 30 110 -10
22 -18 26 -54 26 -23 0 -64 -2 -92 -5z"/>
<path d="M885 2655 c28 -6 56 -9 64 -7 24 9 -18 21 -69 20 l-45 0 50 -13z"/>
<path d="M743 2613 c-58 -63 -90 -121 -145 -258 -23 -59 -16 -53 45 41 61 94
173 199 229 216 38 11 40 13 17 19 -13 4 -46 7 -72 8 -40 1 -52 -3 -74 -26z
m26 -50 c0 -12 -59 -56 -66 -50 -3 3 7 17 22 31 28 26 46 33 44 19z"/>
<path d="M1202 2575 c-37 -75 -40 -87 -14 -55 l19 23 16 -23 c22 -32 30 -21
11 15 -8 17 -11 31 -6 33 6 2 8 12 5 22 -9 35 11 21 51 -35 22 -30 42 -53 44
-50 3 3 -9 25 -26 49 -18 24 -32 51 -32 59 0 12 -19 27 -34 27 -1 0 -16 -29
-34 -65z"/>
<path d="M944 2593 c-40 -42 -128 -181 -152 -242 -12 -30 -25 -73 -28 -95 -3
-31 4 -18 29 51 38 102 114 231 165 281 19 17 29 32 23 32 -5 0 -22 -12 -37
-27z"/>
<path d="M637 2572 c-15 -16 -24 -32 -20 -37 5 -4 3 -5 -4 -2 -28 16 -176
-209 -223 -339 -24 -67 -52 -179 -52 -209 0 -11 -4 -41 -8 -66 -5 -25 -12 -75
-15 -110 -4 -35 -16 -98 -26 -139 -27 -103 -35 -186 -20 -204 8 -10 9 -16 1
-21 -6 -4 -7 -22 -4 -47 6 -32 4 -40 -7 -36 -11 4 -14 31 -13 129 1 132 17
240 59 382 14 48 25 91 25 95 -1 15 -50 -114 -50 -130 0 -10 -9 -55 -20 -100
-35 -143 -38 -161 -33 -226 6 -69 -10 -108 -23 -57 -12 49 18 227 63 369 6 17
5 18 -19 2 -18 -11 -24 -24 -23 -44 1 -15 -4 -41 -11 -58 -7 -16 -16 -70 -20
-120 -3 -49 -10 -96 -14 -103 -5 -9 1 -36 15 -67 13 -29 20 -54 17 -56 -12 -5
-60 -82 -75 -118 -18 -43 -12 -118 13 -176 18 -41 79 -98 137 -128 39 -20 44
-53 12 -82 -17 -15 -23 -16 -27 -5 -13 39 -41 51 -117 51 -41 0 -84 5 -95 10
-11 6 -29 15 -40 20 -18 9 -20 7 -20 -20 0 -34 6 -35 146 -30 90 3 114 -10
114 -62 0 -20 5 -40 10 -43 6 -3 10 -17 10 -30 0 -13 4 -25 9 -27 6 -2 6 -22
-1 -51 -10 -48 -20 -55 -23 -17 -1 10 2 17 7 14 4 -3 8 4 8 15 0 12 -3 21 -8
21 -4 0 -16 28 -27 62 l-19 62 -7 -34 c-8 -37 -3 -54 12 -45 5 4 9 -3 9 -14 0
-17 -5 -19 -35 -14 -36 6 -42 -1 -26 -26 8 -12 12 -12 25 -2 9 7 24 10 33 6
16 -6 15 -8 -7 -25 l-25 -19 28 -25 c15 -14 27 -34 27 -44 0 -24 -23 -44 -47
-41 -10 1 -26 -1 -36 -6 -10 -4 -41 -5 -68 -2 -61 8 -109 -1 -109 -19 0 -10
24 -14 99 -16 l98 -3 -13 -45 -13 -45 -86 2 c-80 2 -85 1 -85 -19 0 -20 4 -21
63 -16 34 3 71 3 82 -1 37 -11 58 -28 51 -40 -5 -8 -12 -9 -19 -2 -12 9 -56
14 -109 12 -15 -1 -36 -11 -47 -23 -19 -20 -19 -22 -3 -34 16 -11 16 -13 -1
-31 -9 -11 -17 -26 -17 -34 0 -31 26 -69 50 -73 43 -8 122 -6 141 4 12 7 20 6
25 -1 4 -7 20 -9 40 -6 38 6 46 -7 12 -18 -19 -6 -72 -9 -255 -15 -7 0 -13 -7
-13 -15 0 -11 12 -15 50 -15 54 0 55 -1 40 -31 -8 -14 -21 -19 -50 -19 -33 0
-40 -3 -40 -20 0 -18 7 -20 54 -20 44 0 63 6 104 33 81 52 89 58 52 41 -19 -9
-47 -25 -62 -36 -31 -21 -57 -16 -37 8 6 7 15 12 19 9 4 -3 11 2 14 11 3 8 10
13 15 9 6 -3 14 3 20 12 6 10 11 15 11 11 0 -4 26 4 57 17 55 25 59 25 102 10
52 -18 51 -17 51 -7 0 4 -20 13 -44 20 -54 14 -101 52 -127 105 -17 32 -20 54
-17 108 2 37 0 66 -3 63 -4 -2 -5 5 -2 16 3 11 9 20 13 20 4 0 19 35 34 78 36
109 75 262 65 256 -5 -3 -9 0 -9 5 0 6 4 11 9 11 5 0 7 10 3 22 -3 13 -1 19 5
15 7 -5 9 1 6 15 -4 13 -2 19 3 15 5 -5 13 10 19 35 l11 43 74 6 c97 8 149 23
234 66 46 23 77 32 93 28 19 -4 23 -2 23 20 0 19 5 25 21 25 16 0 19 4 14 19
-4 13 0 23 12 30 14 8 16 12 6 22 -17 17 -16 29 2 29 22 0 18 27 -5 40 -11 6
-20 18 -20 27 0 13 8 15 48 10 66 -8 345 -76 356 -88 6 -5 18 7 31 33 15 31
37 51 76 74 30 18 74 49 97 71 41 36 43 42 59 133 12 68 16 163 17 335 1 244
-10 374 -39 456 -9 23 -13 44 -11 46 2 3 33 -12 69 -33 l64 -37 42 -116 c23
-64 48 -150 57 -191 8 -41 18 -84 21 -95 6 -18 7 -18 13 5 3 14 3 39 -2 55 -4
17 -16 67 -27 112 -11 45 -24 90 -29 100 -5 10 -12 31 -16 47 -6 26 -5 28 16
23 13 -3 37 -11 54 -18 17 -6 42 -9 57 -5 50 12 39 82 -41 248 -20 43 -40 78
-44 78 -3 0 16 -57 43 -127 46 -119 60 -175 47 -189 -8 -7 -139 55 -263 125
-85 48 -107 56 -145 55 -25 -2 -85 -4 -135 -5 -55 -2 -72 -4 -43 -6 47 -4 47
-4 53 -46 4 -23 5 -62 3 -87 l-3 -45 -33 63 c-18 34 -37 62 -43 62 -5 0 -8 4
-5 8 2 4 -4 13 -15 20 -10 7 -19 10 -19 8 0 -2 23 -45 52 -96 39 -71 53 -106
56 -147 5 -62 -7 -68 -32 -17 -9 20 -19 34 -22 31 -3 -3 6 -28 20 -56 27 -52
35 -94 15 -74 -6 6 -35 59 -65 119 -58 117 -65 107 -9 -13 19 -40 31 -73 27
-73 -14 0 -142 168 -142 186 1 11 7 30 14 43 l13 24 18 -27 c24 -36 29 -27 10
19 -15 34 -15 41 0 77 28 71 -6 38 -55 -54 -36 -66 -44 -89 -36 -100 6 -8 16
-13 21 -12 6 2 24 -20 40 -49 17 -28 37 -52 45 -52 8 0 15 -9 15 -20 1 -11 6
-19 12 -18 7 2 33 -18 58 -43 25 -26 47 -45 49 -43 8 10 26 221 26 309 l0 100
79 0 c95 0 91 5 89 -155 -1 -75 -3 -96 -7 -65 -4 30 -9 -10 -13 -120 -4 -91
-12 -196 -19 -234 -8 -49 -8 -71 0 -79 16 -16 13 -83 -4 -101 -9 -9 -22 -55
-30 -111 -16 -102 -49 -195 -71 -195 -7 0 -17 -7 -22 -16 -8 -15 -12 -15 -45
1 -23 11 -47 15 -62 11 -35 -9 -24 -23 24 -31 22 -3 47 -13 58 -21 17 -14 15
-15 -17 -11 -19 2 -93 16 -165 31 -71 15 -167 31 -212 35 -46 5 -90 14 -98 21
-9 7 -18 10 -21 8 -6 -7 59 -48 75 -48 7 0 9 -5 5 -12 -4 -6 5 -21 22 -35 21
-17 25 -23 12 -23 -23 0 -32 -18 -19 -34 9 -10 8 -15 -4 -20 -11 -4 -14 -13
-10 -25 4 -13 0 -20 -16 -24 -15 -4 -20 -11 -15 -23 5 -12 2 -15 -10 -10 -8 3
-56 -14 -107 -38 -143 -69 -304 -88 -376 -44 -53 33 -77 58 -102 107 -53 104
-9 217 104 263 23 9 36 17 30 17 -19 1 -16 152 7 354 34 297 62 410 147 582
48 97 119 199 133 190 12 -7 40 23 40 42 0 9 7 25 17 35 26 29 9 21 -20 -10z
m834 -509 c0 -27 3 -106 5 -178 5 -131 -11 -449 -24 -471 -4 -7 -35 -33 -69
-58 l-62 -45 30 71 c20 45 28 79 25 94 -9 33 13 113 34 126 13 9 16 18 10 44
-4 18 -6 34 -5 36 2 2 8 75 14 163 14 206 21 265 32 265 5 0 9 -21 10 -47z
m-1313 -1729 c19 -13 22 -24 22 -85 0 -62 -2 -69 -20 -69 -11 0 -20 4 -20 9 0
5 -14 3 -30 -6 -28 -13 -33 -13 -55 1 -52 34 -17 96 52 96 36 0 42 10 18 30
-12 10 -24 11 -50 2 -31 -9 -35 -8 -35 7 0 10 3 21 7 24 12 13 89 7 111 -9z
m110 -160 c-2 -2 -14 -1 -26 3 -16 4 -22 13 -22 32 l1 26 25 -29 c14 -15 23
-30 22 -32z"/>
<path d="M98 253 c-10 -2 -18 -13 -18 -24 0 -31 54 -22 58 9 3 22 -4 25 -40
15z"/>
<path d="M953 2344 c-22 -55 -23 -79 -2 -36 11 24 19 48 17 54 -2 6 -9 -2 -15
-18z"/>
<path d="M688 2308 c-62 -94 -108 -278 -108 -428 1 -84 19 -78 23 7 1 26 5 50
8 53 15 12 60 130 57 147 -2 11 -13 -8 -27 -47 -35 -99 -34 -98 -39 -67 -4 33
28 135 63 196 14 23 25 49 25 55 0 7 9 39 19 72 11 32 19 60 17 61 -2 2 -19
-20 -38 -49z"/>
<path d="M890 2346 c-6 -8 -10 -24 -8 -34 2 -16 6 -14 20 14 18 34 11 46 -12
20z"/>
<path d="M1679 2333 c18 -32 61 -76 61 -63 0 17 -48 80 -61 80 -6 0 -6 -6 0
-17z"/>
<path d="M536 2231 c-44 -87 -71 -183 -91 -325 -22 -160 -17 -180 10 -36 28
156 58 265 96 354 16 39 27 72 24 74 -2 2 -20 -28 -39 -67z"/>
<path d="M956 2249 c-25 -30 -26 -30 -27 -7 -1 16 -4 13 -9 -12 -4 -19 -21
-80 -38 -135 -37 -122 -64 -227 -59 -231 2 -2 14 28 26 66 23 70 40 98 90 153
14 16 26 38 27 50 1 12 4 31 8 42 7 18 7 19 -6 3 -7 -10 -28 -45 -47 -78 -19
-33 -36 -58 -39 -56 -9 9 40 136 67 173 15 21 30 44 35 51 14 23 -2 12 -28
-19z"/>
<path d="M1550 2190 c2 -19 79 -272 79 -260 1 23 -59 244 -70 255 -5 5 -9 7
-9 5z"/>
<path d="M732 2108 c-7 -36 -12 -76 -11 -89 0 -13 7 12 15 55 8 44 13 84 11
89 -2 6 -8 -19 -15 -55z"/>
<path d="M1010 2155 c0 -10 22 -46 56 -92 l16 -23 -48 0 c-27 0 -56 -5 -64
-11 -11 -8 5 -9 57 -5 64 5 73 4 82 -13 6 -10 33 -36 61 -57 l52 -39 -6 -55
c-3 -38 -2 -46 3 -25 19 70 14 92 -35 137 -26 24 -49 43 -53 43 -16 1 -35 22
-76 83 -25 37 -45 62 -45 57z"/>
<path d="M330 2136 c-3 -2 -35 -7 -72 -9 -37 -3 -73 -9 -79 -13 -6 -4 -49 -6
-95 -5 -70 2 -84 0 -84 -13 0 -13 15 -16 84 -16 47 0 97 5 112 10 19 8 31 7
42 -2 12 -10 16 -10 19 0 3 6 9 12 14 12 10 0 12 -33 3 -43 -4 -3 -8 -26 -10
-49 -2 -24 -5 -64 -8 -91 -2 -26 0 -50 5 -53 5 -3 9 5 9 19 0 32 38 174 56
209 14 26 16 57 4 44z"/>
<path d="M1611 2130 c-1 -3 4 -31 9 -62 6 -32 14 -84 20 -115 7 -40 6 -60 -1
-70 -8 -8 -8 -13 -1 -13 10 0 15 -48 16 -177 1 -51 5 -73 13 -73 23 0 33 96
21 200 -11 93 -74 343 -77 310z"/>
<path d="M678 2033 c-12 -17 -8 -157 4 -145 5 5 8 42 6 83 -2 41 -6 69 -10 62z"/>
<path d="M486 1946 c-8 -62 -3 -213 9 -306 l5 -35 -20 40 c-11 22 -20 48 -20
58 0 9 -5 17 -10 17 -15 0 -1 -90 16 -107 8 -8 14 -15 15 -16 5 -11 12 -187 7
-187 -4 0 -9 10 -11 23 -4 19 -4 18 -6 -5 -1 -27 -3 -28 -53 -29 -29 0 -61 -3
-70 -7 -10 -4 38 -7 105 -7 105 0 130 -4 182 -24 38 -15 77 -23 107 -22 61 2
290 -28 303 -40 16 -16 54 -10 64 10 10 17 7 19 -24 18 -19 -1 -38 3 -42 7
-10 10 28 38 43 32 10 -4 24 13 24 29 0 2 -21 -8 -46 -22 -44 -25 -49 -25 -98
-13 -28 7 -116 15 -196 18 -159 5 -170 9 -218 76 -31 44 -42 126 -51 366 -6
174 -8 188 -15 126z m59 -536 c-11 -17 -35 9 -35 38 l0 25 21 -27 c11 -14 17
-31 14 -36z"/>
<path d="M716 1978 c-12 -37 -26 -110 -26 -129 0 -45 15 -5 25 67 10 68 10 92
1 62z"/>
<path d="M800 1918 c-7 -40 -8 -64 -2 -66 5 -1 7 -13 4 -25 -3 -12 -2 -19 1
-16 7 6 20 169 14 169 -3 0 -10 -28 -17 -62z"/>
<path d="M761 1879 c-6 -18 -11 -40 -11 -49 0 -28 -31 -38 -134 -45 -63 -4
-78 -11 -56 -25 27 -17 84 -10 148 18 l64 27 3 53 c1 28 1 52 0 52 -2 0 -8
-14 -14 -31z"/>
<path d="M968 1845 c-39 -22 -35 -39 4 -19 23 12 45 15 82 10 35 -4 46 -3 35
4 -31 18 -93 21 -121 5z"/>
<path d="M1715 1783 c3 -32 2 -79 -3 -105 l-9 -47 46 6 c25 3 50 10 56 14 22
21 34 9 24 -23 -12 -43 -11 -68 2 -68 6 0 8 8 4 19 -4 15 0 19 21 19 16 0 21
-3 14 -8 -9 -5 -9 -9 -1 -14 6 -4 15 -4 21 -1 6 4 7 -1 3 -12 -6 -15 -5 -16
10 -3 14 14 12 18 -23 51 -22 20 -37 38 -34 42 12 12 -38 28 -70 21 -31 -5
-35 -3 -38 18 -2 12 0 48 4 78 5 38 3 57 -5 62 -24 15 -28 7 -22 -49z"/>
<path d="M970 1789 c0 -14 77 -46 130 -53 50 -7 102 4 108 22 3 9 -12 10 -55
6 -45 -5 -70 -2 -113 15 -63 24 -70 25 -70 10z"/>
<path d="M1186 1699 c-3 -8 -10 -41 -16 -74 -6 -33 -21 -91 -31 -128 -24 -80
-19 -102 6 -28 19 57 55 234 49 240 -2 2 -6 -2 -8 -10z"/>
<path d="M432 1579 c-9 -13 -10 -32 -5 -57 l7 -37 7 55 c3 30 5 56 5 57 -1 1
-7 -7 -14 -18z"/>
<path d="M1572 1517 c-17 -49 -35 -76 -74 -113 -46 -43 -49 -49 -31 -52 12 -2
31 2 42 7 29 16 54 14 47 -4 -3 -8 -1 -15 4 -15 6 0 10 5 10 11 0 5 4 8 9 4 5
-3 12 3 14 12 11 38 16 150 9 181 -7 33 -7 33 -30 -31z m-2 -87 c-11 -27 -36
-50 -54 -50 -3 0 9 20 26 45 35 50 47 52 28 5z"/>
<path d="M348 1544 c-5 -4 -8 -32 -7 -63 1 -53 1 -54 10 -22 11 37 8 97 -3 85z"/>
<path d="M1872 1532 c2 -9 8 -17 15 -17 6 0 15 -3 19 -7 4 -5 -7 -8 -25 -8
-28 0 -31 -3 -26 -20 4 -11 2 -20 -4 -20 -6 0 -11 -5 -11 -11 0 -5 4 -8 9 -5
5 4 8 -2 6 -11 -2 -10 -4 -20 -4 -22 -1 -3 -6 0 -13 7 -7 7 -19 12 -27 11 -16
0 -168 -224 -164 -240 2 -5 -3 -8 -10 -7 -6 2 -11 -3 -9 -10 1 -8 -2 -11 -6
-8 -5 3 -18 -4 -28 -16 -11 -12 -13 -18 -5 -13 10 5 12 4 7 -3 -4 -7 -11 -12
-17 -12 -12 0 -49 -37 -49 -51 0 -5 -4 -8 -9 -4 -5 3 -33 -22 -62 -55 -28 -33
-56 -60 -61 -60 -5 0 -6 4 -3 10 3 5 -8 2 -24 -8 -17 -9 -31 -21 -31 -26 0 -6
5 -5 12 2 7 7 14 12 18 12 3 0 5 -64 5 -143 l0 -142 50 -122 c27 -67 54 -119
59 -116 5 4 6 -6 2 -23 -4 -16 -3 -24 1 -17 5 6 8 -19 8 -57 0 -37 -4 -66 -9
-63 -5 3 -7 0 -4 -8 3 -8 -16 -33 -40 -56 -25 -24 -40 -43 -34 -43 6 0 13 4
16 9 3 5 15 11 26 14 12 3 18 1 14 -5 -4 -6 2 -8 16 -3 15 5 20 4 16 -4 -4 -6
-1 -9 7 -5 8 3 17 -2 21 -11 4 -11 12 -14 26 -10 13 4 22 1 26 -9 3 -9 10 -13
15 -10 12 7 99 -56 99 -73 0 -21 -29 -27 -48 -10 -22 20 -132 69 -132 59 0 -4
36 -24 80 -44 l79 -38 226 0 c218 0 225 1 225 20 0 19 -7 20 -196 20 l-196 0
-45 40 c-25 22 -74 54 -109 72 -55 28 -63 35 -56 53 4 11 7 64 7 118 l-1 99
43 -7 c34 -5 46 -2 62 14 12 12 21 32 21 46 0 35 40 59 84 51 21 -4 48 -1 68
7 27 11 38 11 63 1 43 -19 57 -17 88 11 22 21 27 34 27 72 0 26 6 53 14 62 40
44 15 126 -42 137 -37 8 -57 38 -38 57 12 12 24 12 78 0 116 -25 128 -26 128
-13 0 6 -9 14 -20 17 -11 3 -20 9 -20 13 0 4 -12 5 -27 3 -23 -4 -25 -2 -13 7
13 10 12 11 -4 6 -23 -8 -88 3 -81 14 3 4 -9 10 -26 14 -42 8 -49 8 -49 -3 0
-5 8 -8 18 -6 9 1 11 0 5 -2 -7 -3 -13 -9 -13 -14 0 -6 -5 -7 -12 -3 -7 4 -8
3 -4 -4 4 -7 2 -20 -4 -29 -10 -16 -11 -16 -5 2 5 16 4 17 -6 8 -10 -10 -9
-16 4 -30 8 -10 20 -30 26 -45 7 -20 15 -25 30 -21 30 8 71 -22 71 -52 0 -14
-11 -32 -27 -44 -24 -20 -25 -24 -15 -58 21 -68 -30 -105 -86 -63 l-30 23 -28
-22 c-30 -24 -54 -27 -72 -9 -9 9 -17 9 -36 -2 -14 -7 -32 -10 -40 -7 -9 4
-20 -1 -25 -11 -8 -12 -10 1 -11 51 0 58 2 67 18 67 10 0 26 -6 36 -13 23 -17
11 -50 -15 -42 -20 7 -27 -9 -9 -20 13 -8 60 24 60 41 0 22 20 16 29 -8 9 -22
10 -21 26 16 9 21 14 44 11 51 -2 7 2 21 9 32 21 30 67 141 49 118 -8 -11 -34
-57 -56 -102 -23 -46 -46 -83 -52 -83 -6 0 -33 7 -59 15 -48 14 -48 14 -57
-11 -6 -14 -10 -32 -10 -40 0 -27 -20 -14 -21 14 l-1 27 -12 -29 -13 -28 -8
33 -8 34 -7 -30 c-5 -21 -8 -24 -9 -10 0 12 -5 25 -10 30 -6 6 -18 51 -28 100
-9 50 -19 82 -21 72 -2 -9 -8 -15 -13 -11 -6 3 -21 -2 -35 -11 -21 -13 -24
-22 -19 -43 4 -15 11 -29 16 -33 6 -3 3 -20 -6 -40 l-16 -34 6 38 c4 23 2 37
-5 37 -5 0 -10 22 -10 49 0 41 4 51 20 56 11 3 20 13 20 20 0 37 86 47 116 14
11 -13 26 -18 39 -15 25 6 65 -3 65 -16 0 -5 -33 -7 -77 -4 -76 5 -77 5 -17
-4 34 -5 70 -10 80 -12 17 -3 19 3 17 60 -1 37 3 62 9 62 6 0 8 15 6 34 -2 20
0 32 6 29 5 -4 6 11 2 38 -4 31 -3 39 4 29 7 -12 10 -8 10 15 0 75 28 171 66
231 l39 61 95 10 c55 6 96 7 98 2 4 -10 102 -12 126 -3 30 12 18 34 -18 34
-45 0 -86 16 -86 34 0 17 21 26 60 26 16 0 32 4 35 10 4 6 -18 9 -56 9 l-61
-1 6 -28 c6 -35 -9 -49 -52 -48 -41 1 -46 10 -29 45 17 35 12 59 -14 66 -15 4
-19 1 -17 -11z m-233 -458 c1 -45 0 -46 -24 -42 -32 7 -42 -8 -15 -22 23 -12
24 -20 9 -72 -11 -43 -33 -49 -74 -22 -16 11 -38 14 -65 11 -22 -2 -40 -2 -40
0 0 7 31 37 58 55 14 9 27 24 28 34 1 9 19 30 40 47 20 17 42 36 48 43 21 25
33 14 35 -32z m-155 -382 c10 -62 17 -115 14 -117 -3 -3 -22 1 -44 8 -29 10
-39 20 -40 36 -1 12 -4 24 -7 27 -3 3 8 24 24 47 37 51 38 77 4 77 -19 0 -25
5 -25 21 0 16 5 20 28 17 26 -3 27 -6 46 -116z m109 -96 c9 -5 17 -19 17 -31
0 -13 5 -27 10 -30 16 -10 12 -85 -4 -91 -8 -3 -42 2 -76 10 -34 9 -66 14 -71
10 -5 -3 -9 0 -9 5 0 6 5 11 12 11 6 0 3 9 -7 20 -10 11 -14 20 -9 20 5 0 2 5
-6 10 -13 9 -13 11 0 20 8 5 23 10 34 10 10 0 26 11 37 24 18 23 38 27 72 12z"/>
<path d="M1438 641 c-15 -27 -15 -30 -1 -36 21 -8 25 -2 21 34 l-3 31 -17 -29z"/>
<path d="M1637 1510 c-4 -14 -6 -38 -6 -55 l1 -30 9 34 c6 18 9 43 7 55 -3 20
-4 19 -11 -4z"/>
<path d="M1321 1513 c-1 -7 -13 -38 -28 -70 -15 -32 -29 -62 -31 -68 -3 -5 5
1 16 15 27 31 27 24 2 -37 l-20 -48 24 27 c24 27 54 153 43 180 -4 10 -6 10
-6 1z"/>
<path d="M1132 1406 c-7 -15 -12 -37 -11 -49 0 -16 5 -10 15 17 17 47 14 71
-4 32z"/>
<path d="M1786 1182 c-11 -11 -6 -24 8 -19 7 3 26 -1 41 -9 15 -8 30 -13 31
-11 2 2 -14 13 -35 24 -22 12 -42 19 -45 15z"/>
<path d="M1443 1117 c-23 -18 -52 -45 -64 -62 l-22 -30 30 30 c17 17 42 38 57
49 52 37 61 45 51 45 -5 0 -29 -15 -52 -32z"/>
<path d="M508 1053 c18 -2 45 -2 60 0 15 2 0 4 -33 4 -33 0 -45 -2 -27 -4z"/>
<path d="M1 845 c0 -11 3 -14 6 -7 11 28 73 -2 73 -36 0 -18 -21 -15 -35 5
-11 15 -13 15 -24 -5 -11 -20 -9 -22 19 -22 20 0 30 -5 30 -15 0 -8 -7 -15
-15 -15 -8 0 -15 -4 -15 -10 0 -5 9 -10 20 -10 16 0 19 -6 16 -36 -2 -32 0
-35 18 -29 12 4 27 7 34 7 19 2 16 68 -4 68 -11 0 -14 -5 -9 -17 11 -31 10
-38 -5 -38 -10 0 -15 10 -15 28 1 15 -3 27 -7 27 -4 0 -8 5 -8 10 0 6 23 10
50 10 28 0 50 5 50 10 0 6 -20 10 -45 10 -25 0 -45 5 -45 10 0 6 20 10 45 10
59 0 58 18 -2 22 -26 2 -48 9 -51 16 -3 9 16 12 70 12 48 0 68 3 59 9 -8 5
-59 9 -113 8 -91 -2 -98 -3 -97 -22z"/>
<path d="M1727 816 c-3 -7 -8 -35 -11 -62 -7 -55 7 -25 17 39 6 38 3 48 -6 23z"/>
<path d="M1851 788 c5 -18 9 -34 9 -35 0 -2 16 -3 35 -3 19 0 35 5 35 10 0 6
-9 10 -19 10 -11 0 -28 11 -39 25 -27 34 -32 31 -21 -7z"/>
<path d="M1912 718 c-17 -11 -32 -21 -32 -23 0 -10 31 -75 36 -75 4 0 4 12 1
27 -5 28 7 62 27 75 6 4 8 9 5 12 -2 3 -19 -4 -37 -16z"/>
<path d="M0 665 c0 -27 3 -45 7 -42 8 9 8 75 0 84 -4 3 -7 -15 -7 -42z"/>
<path d="M47 703 c-4 -3 -7 -21 -7 -40 0 -26 4 -33 20 -33 11 0 20 -4 20 -9 0
-11 -25 -21 -56 -21 -13 0 -24 -4 -24 -8 0 -5 39 -7 88 -5 135 4 155 7 160 22
3 10 0 12 -13 7 -13 -5 -25 1 -41 21 l-23 28 -1 -31 c0 -20 -6 -34 -16 -38
-29 -11 -44 -6 -44 14 0 11 7 20 15 20 8 0 15 5 15 11 0 6 -7 8 -15 5 -8 -3
-22 -9 -30 -12 -8 -3 -15 -1 -15 5 0 6 -7 11 -15 11 -11 0 -13 8 -8 30 5 30 3
36 -10 23z"/>
<path d="M1791 626 l-23 -25 35 11 c25 8 44 8 68 -1 l34 -11 -30 24 c-38 32
-56 32 -84 2z"/>
<path d="M1043 293 c32 -2 81 -2 110 0 29 2 3 3 -58 3 -60 0 -84 -1 -52 -3z"/>
<path d="M776 169 c-32 -5 -62 -11 -65 -15 -3 -3 15 -3 42 1 26 4 91 11 145
15 l97 7 -80 0 c-44 0 -107 -3 -139 -8z"/>
<path d="M670 128 c-25 -3 -67 -4 -95 -2 -27 3 -63 0 -80 -5 -27 -9 -25 -10
18 -7 26 2 47 0 47 -5 0 -17 -42 -51 -56 -45 -10 4 -12 2 -8 -6 5 -7 -1 -9
-20 -4 -16 4 -26 2 -26 -5 0 -6 -7 -9 -15 -6 -8 4 -17 2 -20 -3 -4 -6 -14 -10
-23 -9 -14 0 -13 2 3 9 28 12 23 12 -95 -9 l-105 -19 705 0 c624 0 698 2 645
14 -77 18 -153 27 -237 28 -68 1 -95 13 -85 39 3 9 28 16 73 20 37 4 72 12 78
18 8 9 5 10 -14 5 -14 -4 -68 -10 -120 -14 -72 -4 -88 -8 -65 -14 19 -4 8 -5
-30 -2 -33 2 -61 8 -63 13 -1 4 -17 5 -34 3 -21 -3 -29 -1 -24 7 4 6 1 11 -9
11 -9 0 -13 -5 -9 -11 4 -8 -1 -9 -17 -4 -30 10 -260 12 -319 3z m355 -39 c50
-5 105 -11 123 -13 18 -1 38 -8 44 -14 9 -9 -62 -12 -310 -12 -281 0 -321 2
-316 15 4 8 20 19 38 24 43 13 312 13 421 0z"/>
<path d="M201 49 c-34 -17 -60 -34 -57 -36 3 -3 31 7 63 23 72 36 67 33 61 39
-2 3 -33 -9 -67 -26z"/>
</g>
</svg>
